<svg width="32" height="32" viewBox="0 0 32 32" fill="none" xmlns="http://www.w3.org/2000/svg">
<path d="M18.3086 16.0049L9.34267 7.38527C9.09579 7.1485 8.95998 6.83194 8.95998 6.49439C8.95998 6.15666 9.09579 5.84028 9.34267 5.60314L10.1283 4.84825C10.3748 4.61073 10.7043 4.47998 11.0554 4.47998C11.4065 4.47998 11.7356 4.61073 11.9823 4.84825L22.6577 15.1106C22.9053 15.3485 23.0409 15.6664 23.04 16.0043C23.0409 16.3437 22.9055 16.6612 22.6577 16.8993L11.9923 27.1517C11.7456 27.3892 11.4165 27.52 11.0652 27.52C10.714 27.52 10.3849 27.3892 10.1381 27.1517L9.35261 26.3968C8.84151 25.9055 8.84151 25.1057 9.35261 24.6145L18.3086 16.0049Z" fill="#17164D"/>
</svg>
