<svg width="24" height="24" viewBox="0 0 24 24" fill="none" xmlns="http://www.w3.org/2000/svg">
<path d="M11.9963 13.7315L18.461 7.00702C18.6386 6.82187 18.876 6.72001 19.1292 6.72001C19.3825 6.72001 19.6198 6.82187 19.7976 7.00702L20.3638 7.59626C20.5419 7.78112 20.64 8.02824 20.64 8.29158C20.64 8.55493 20.5419 8.80175 20.3638 8.98677L12.667 16.9933C12.4886 17.179 12.2502 17.2807 11.9968 17.28C11.7422 17.2807 11.5041 17.1792 11.3255 16.9933L3.6362 8.99422C3.45806 8.80921 3.36 8.56238 3.36 8.29889C3.36 8.03555 3.45806 7.78872 3.6362 7.60356L4.20236 7.01448C4.57086 6.63116 5.17075 6.63116 5.5391 7.01448L11.9963 13.7315Z" fill="#25273A"/>
</svg>
