<svg width="32" height="32" viewBox="0 0 32 32" fill="none" xmlns="http://www.w3.org/2000/svg">
<path d="M13.6914 15.9951L22.6573 24.6147C22.9041 24.8515 23.04 25.1681 23.04 25.5056C23.04 25.8433 22.9041 26.1597 22.6573 26.3969L21.8716 27.1518C21.6251 27.3893 21.2956 27.52 20.9445 27.52C20.5934 27.52 20.2643 27.3893 20.0176 27.1518L9.34227 16.8894C9.09461 16.6515 8.95899 16.3336 8.95997 15.9957C8.95899 15.6563 9.09441 15.3388 9.34226 15.1007L20.0077 4.84829C20.2544 4.61077 20.5835 4.48002 20.9348 4.48002C21.2859 4.48002 21.615 4.61077 21.8619 4.84829L22.6473 5.60317C23.1584 6.09451 23.1584 6.89435 22.6473 7.38549L13.6914 15.9951Z" fill="#17164D" fill-opacity="0.6"/>
</svg>
