<svg width="30" height="30" viewBox="0 0 30 30" fill="none" xmlns="http://www.w3.org/2000/svg">
<path d="M25.0008 13.7487H27.5008C27.5008 7.33625 22.6595 2.5 16.2383 2.5V5C21.3158 5 25.0008 8.67875 25.0008 13.7487Z" fill="white"/>
<path d="M16.2504 9.99981C18.8791 9.99981 20.0004 11.1211 20.0004 13.7498H22.5004C22.5004 9.71856 20.2816 7.49981 16.2504 7.49981V9.99981ZM20.5279 16.8036C20.2877 16.5853 19.972 16.4688 19.6476 16.4788C19.3232 16.4889 19.0154 16.6246 18.7891 16.8573L15.7979 19.9336C15.0779 19.7961 13.6304 19.3448 12.1404 17.8586C10.6504 16.3673 10.1991 14.9161 10.0654 14.2011L13.1391 11.2086C13.3721 10.9825 13.508 10.6746 13.5181 10.3501C13.5281 10.0256 13.4115 9.70986 13.1929 9.46981L8.5741 4.39106C8.35541 4.15026 8.05145 4.00419 7.72679 3.98389C7.40214 3.96358 7.08235 4.07063 6.83535 4.28231L4.12285 6.60856C3.90674 6.82545 3.77775 7.11412 3.76035 7.41981C3.7416 7.73231 3.3841 15.1348 9.1241 20.8773C14.1316 25.8836 20.4041 26.2498 22.1316 26.2498C22.3841 26.2498 22.5391 26.2423 22.5804 26.2398C22.886 26.2227 23.1745 26.0931 23.3904 25.8761L25.7154 23.1623C25.9272 22.9155 26.0345 22.5958 26.0144 22.2711C25.9943 21.9465 25.8485 21.6424 25.6079 21.4236L20.5279 16.8036Z" fill="white"/>
</svg>
