<svg width="24" height="24" viewBox="0 0 24 24" fill="none" xmlns="http://www.w3.org/2000/svg">
<g clip-path="url(#clip0_1_1034)">
<path d="M8.68601 4.00001L11.293 1.39301C11.4805 1.20554 11.7348 1.10022 12 1.10022C12.2652 1.10022 12.5195 1.20554 12.707 1.39301L15.314 4.00001H19C19.2652 4.00001 19.5196 4.10536 19.7071 4.2929C19.8946 4.48044 20 4.73479 20 5.00001V8.68601L22.607 11.293C22.7945 11.4805 22.8998 11.7348 22.8998 12C22.8998 12.2652 22.7945 12.5195 22.607 12.707L20 15.314V19C20 19.2652 19.8946 19.5196 19.7071 19.7071C19.5196 19.8946 19.2652 20 19 20H15.314L12.707 22.607C12.5195 22.7945 12.2652 22.8998 12 22.8998C11.7348 22.8998 11.4805 22.7945 11.293 22.607L8.68601 20H5.00001C4.73479 20 4.48044 19.8946 4.2929 19.7071C4.10536 19.5196 4.00001 19.2652 4.00001 19V15.314L1.39301 12.707C1.20554 12.5195 1.10022 12.2652 1.10022 12C1.10022 11.7348 1.20554 11.4805 1.39301 11.293L4.00001 8.68601V5.00001C4.00001 4.73479 4.10536 4.48044 4.2929 4.2929C4.48044 4.10536 4.73479 4.00001 5.00001 4.00001H8.68601ZM12 15C12.7957 15 13.5587 14.6839 14.1213 14.1213C14.6839 13.5587 15 12.7957 15 12C15 11.2044 14.6839 10.4413 14.1213 9.87868C13.5587 9.31608 12.7957 9.00001 12 9.00001C11.2044 9.00001 10.4413 9.31608 9.87868 9.87868C9.31608 10.4413 9.00001 11.2044 9.00001 12C9.00001 12.7957 9.31608 13.5587 9.87868 14.1213C10.4413 14.6839 11.2044 15 12 15Z" fill="#09121F"/>
</g>
<defs>
<clipPath id="clip0_1_1034">
<rect width="24" height="24" fill="white"/>
</clipPath>
</defs>
</svg>
