<svg width="24" height="24" viewBox="0 0 24 24" fill="none" xmlns="http://www.w3.org/2000/svg">
<g clip-path="url(#clip0_1_622)">
<path d="M12.866 2.99999L22.392 19.5C22.4797 19.652 22.5259 19.8244 22.5259 20C22.5259 20.1755 22.4797 20.348 22.392 20.5C22.3042 20.652 22.178 20.7782 22.026 20.866C21.8739 20.9538 21.7015 21 21.526 21H2.47397C2.29844 21 2.126 20.9538 1.97398 20.866C1.82197 20.7782 1.69573 20.652 1.60797 20.5C1.5202 20.348 1.474 20.1755 1.474 20C1.474 19.8244 1.52021 19.652 1.60797 19.5L11.134 2.99999C11.2217 2.84798 11.348 2.72175 11.5 2.63399C11.652 2.54623 11.8244 2.50003 12 2.50003C12.1755 2.50003 12.3479 2.54623 12.5 2.63399C12.652 2.72175 12.7782 2.84798 12.866 2.99999ZM11 16V18H13V16H11ZM11 8.99999V14H13V8.99999H11Z" fill="#09121F"/>
</g>
<defs>
<clipPath id="clip0_1_622">
<rect width="24" height="24" fill="white"/>
</clipPath>
</defs>
</svg>
