<svg width="24" height="24" viewBox="0 0 24 24" fill="none" xmlns="http://www.w3.org/2000/svg">
<g clip-path="url(#clip0_1_409)">
<path d="M13.12 17.023L8.92101 14.733C8.3728 15.3191 7.66099 15.7267 6.87808 15.9029C6.09517 16.0791 5.27736 16.0157 4.53093 15.721C3.7845 15.4263 3.14397 14.9139 2.69258 14.2504C2.24118 13.5869 1.9998 12.803 1.9998 12.0005C1.9998 11.198 2.24118 10.4141 2.69258 9.75055C3.14397 9.08704 3.7845 8.57464 4.53093 8.27995C5.27736 7.98526 6.09517 7.9219 6.87808 8.0981C7.66099 8.27431 8.3728 8.68193 8.92101 9.26799L13.121 6.97799C12.8826 6.03406 12.9966 5.03558 13.4416 4.16969C13.8867 3.30381 14.6323 2.62997 15.5387 2.27449C16.445 1.91901 17.4499 1.90629 18.365 2.23872C19.2801 2.57115 20.0425 3.22591 20.5093 4.08025C20.9762 4.9346 21.1154 5.92988 20.9009 6.87954C20.6864 7.82919 20.133 8.66803 19.3442 9.2388C18.5555 9.80957 17.5857 10.0731 16.6166 9.97998C15.6475 9.88687 14.7456 9.4435 14.08 8.73299L9.88001 11.023C10.0412 11.6643 10.0412 12.3356 9.88001 12.977L14.079 15.267C14.7446 14.5565 15.6465 14.1131 16.6156 14.02C17.5847 13.9269 18.5545 14.1904 19.3432 14.7612C20.132 15.332 20.6854 16.1708 20.8999 17.1204C21.1144 18.0701 20.9752 19.0654 20.5083 19.9197C20.0415 20.7741 19.2791 21.4288 18.364 21.7613C17.4489 22.0937 16.444 22.081 15.5377 21.7255C14.6313 21.37 13.8857 20.6962 13.4406 19.8303C12.9956 18.9644 12.8816 17.9659 13.12 17.022V17.023ZM6.00001 14C6.53044 14 7.03915 13.7893 7.41422 13.4142C7.78929 13.0391 8.00001 12.5304 8.00001 12C8.00001 11.4696 7.78929 10.9608 7.41422 10.5858C7.03915 10.2107 6.53044 9.99999 6.00001 9.99999C5.46957 9.99999 4.96087 10.2107 4.58579 10.5858C4.21072 10.9608 4.00001 11.4696 4.00001 12C4.00001 12.5304 4.21072 13.0391 4.58579 13.4142C4.96087 13.7893 5.46957 14 6.00001 14ZM17 7.99999C17.5304 7.99999 18.0391 7.78928 18.4142 7.4142C18.7893 7.03913 19 6.53042 19 5.99999C19 5.46956 18.7893 4.96085 18.4142 4.58578C18.0391 4.2107 17.5304 3.99999 17 3.99999C16.4696 3.99999 15.9609 4.2107 15.5858 4.58578C15.2107 4.96085 15 5.46956 15 5.99999C15 6.53042 15.2107 7.03913 15.5858 7.4142C15.9609 7.78928 16.4696 7.99999 17 7.99999ZM17 20C17.5304 20 18.0391 19.7893 18.4142 19.4142C18.7893 19.0391 19 18.5304 19 18C19 17.4696 18.7893 16.9608 18.4142 16.5858C18.0391 16.2107 17.5304 16 17 16C16.4696 16 15.9609 16.2107 15.5858 16.5858C15.2107 16.9608 15 17.4696 15 18C15 18.5304 15.2107 19.0391 15.5858 19.4142C15.9609 19.7893 16.4696 20 17 20Z" fill="#09121F"/>
</g>
<defs>
<clipPath id="clip0_1_409">
<rect width="24" height="24" fill="white"/>
</clipPath>
</defs>
</svg>
