<svg width="24" height="24" viewBox="0 0 24 24" fill="none" xmlns="http://www.w3.org/2000/svg">
<g clip-path="url(#clip0_1_585)">
<path d="M3.055 13H5.07C5.31229 14.6648 6.14587 16.1867 7.41823 17.2873C8.6906 18.3879 10.3167 18.9936 11.999 18.9936C13.6813 18.9936 15.3074 18.3879 16.5798 17.2873C17.8521 16.1867 18.6857 14.6648 18.928 13H20.944C20.6975 15.1999 19.6489 17.2317 17.9988 18.7073C16.3486 20.1828 14.2126 20.9985 11.999 20.9985C9.78537 20.9985 7.64936 20.1828 5.99922 18.7073C4.34909 17.2317 3.30054 15.1999 3.054 13H3.055ZM3.055 11C3.30154 8.80015 4.35009 6.76829 6.00022 5.29275C7.65036 3.81721 9.78637 3.0015 12 3.0015C14.2136 3.0015 16.3496 3.81721 17.9998 5.29275C19.6499 6.76829 20.6985 8.80015 20.945 11H18.93C18.6877 9.33523 17.8541 7.81333 16.5818 6.71274C15.3094 5.61216 13.6833 5.00646 12.001 5.00646C10.3187 5.00646 8.6926 5.61216 7.42023 6.71274C6.14787 7.81333 5.31429 9.33523 5.072 11H3.055Z" fill="#09121F"/>
</g>
<defs>
<clipPath id="clip0_1_585">
<rect width="24" height="24" fill="white"/>
</clipPath>
</defs>
</svg>
