<svg width="24" height="24" viewBox="0 0 24 24" fill="none" xmlns="http://www.w3.org/2000/svg">
<g clip-path="url(#clip0_1_361)">
<path d="M14.6 8H21C21.5304 8 22.0391 8.21071 22.4142 8.58578C22.7893 8.96085 23 9.46956 23 10V12.104C23.0003 12.3654 22.9493 12.6242 22.85 12.866L19.755 20.381C19.6795 20.5642 19.5513 20.7209 19.3866 20.8311C19.2219 20.9413 19.0282 21.0001 18.83 21H2C1.73478 21 1.48043 20.8946 1.29289 20.7071C1.10536 20.5196 1 20.2652 1 20V10C1 9.73478 1.10536 9.48042 1.29289 9.29289C1.48043 9.10535 1.73478 9 2 9H5.482C5.6421 9.00004 5.79986 8.96164 5.94203 8.88803C6.0842 8.81442 6.20662 8.70775 6.299 8.57699L11.752 0.849995C11.8209 0.752308 11.9226 0.682556 12.0385 0.653386C12.1545 0.624215 12.277 0.637558 12.384 0.690995L14.198 1.598C14.7085 1.85316 15.1163 2.27531 15.3537 2.79431C15.5911 3.31331 15.6438 3.89792 15.503 4.451L14.6 8ZM7 10.588V19H18.16L21 12.104V10H14.6C14.2954 9.99995 13.9948 9.93033 13.7212 9.79645C13.4476 9.66257 13.2082 9.46797 13.0213 9.22748C12.8343 8.987 12.7048 8.70699 12.6425 8.40882C12.5803 8.11065 12.5869 7.8022 12.662 7.507L13.565 3.959C13.5933 3.84832 13.5828 3.73131 13.5353 3.62742C13.4878 3.52354 13.4062 3.43904 13.304 3.388L12.643 3.058L7.933 9.72999C7.683 10.084 7.363 10.374 7 10.588ZM5 11H3V19H5V11Z" fill="#09121F"/>
</g>
<defs>
<clipPath id="clip0_1_361">
<rect width="24" height="24" fill="white"/>
</clipPath>
</defs>
</svg>
