<svg width="24" height="24" viewBox="0 0 24 24" fill="none" xmlns="http://www.w3.org/2000/svg">
<g clip-path="url(#clip0_1_854)">
<path d="M4.52003 5.93401L1.39303 2.80801L2.80803 1.39301L22.607 21.193L21.192 22.607L17.882 19.297C16.1232 20.4126 14.0828 21.0033 12 21C6.60803 21 2.12203 17.12 1.18103 12C1.61106 9.67072 2.78266 7.5429 4.52103 5.93401H4.52003ZM14.757 16.172L13.293 14.708C12.7331 14.9759 12.1038 15.0635 11.492 14.9588C10.8801 14.854 10.3158 14.5621 9.8769 14.1231C9.43797 13.6842 9.146 13.1199 9.04125 12.5081C8.93649 11.8962 9.02411 11.267 9.29203 10.707L7.82803 9.24301C7.19175 10.2045 6.9073 11.3563 7.02286 12.5035C7.13842 13.6507 7.64688 14.7226 8.46215 15.5379C9.27742 16.3532 10.3494 16.8616 11.4965 16.9772C12.6437 17.0927 13.7955 16.8083 14.757 16.172ZM7.97403 3.76001C9.22103 3.27001 10.58 3.00001 12 3.00001C17.392 3.00001 21.878 6.88001 22.819 12C22.5126 13.6657 21.8239 15.2376 20.807 16.592L16.947 12.732C17.0617 11.9596 16.9939 11.1711 16.749 10.4297C16.5041 9.68821 16.0889 9.01442 15.5368 8.46227C14.9846 7.91013 14.3108 7.49498 13.5694 7.25008C12.8279 7.00518 12.0394 6.93735 11.267 7.05201L7.97403 3.76101V3.76001Z" fill="#09121F"/>
</g>
<defs>
<clipPath id="clip0_1_854">
<rect width="24" height="24" fill="white"/>
</clipPath>
</defs>
</svg>
