<svg width="24" height="24" viewBox="0 0 24 24" fill="none" xmlns="http://www.w3.org/2000/svg">
<g clip-path="url(#clip0_1_37)">
<path d="M12 22C10.8181 22 9.64777 21.7672 8.55584 21.3149C7.46391 20.8626 6.47176 20.1997 5.63603 19.364C4.80031 18.5282 4.13737 17.5361 3.68508 16.4442C3.23279 15.3522 2.99999 14.1819 2.99999 13C2.99999 11.8181 3.23279 10.6478 3.68508 9.55586C4.13737 8.46393 4.80031 7.47178 5.63603 6.63605C6.47176 5.80032 7.46391 5.13739 8.55584 4.68509C9.64777 4.2328 10.8181 4.00001 12 4.00001C14.3869 4.00001 16.6761 4.94822 18.364 6.63605C20.0518 8.32388 21 10.6131 21 13C21 15.387 20.0518 17.6761 18.364 19.364C16.6761 21.0518 14.3869 22 12 22ZM12 20C12.9192 20 13.8295 19.819 14.6788 19.4672C15.5281 19.1154 16.2997 18.5998 16.9497 17.9498C17.5998 17.2997 18.1154 16.5281 18.4672 15.6788C18.8189 14.8295 19 13.9193 19 13C19 12.0808 18.8189 11.1705 18.4672 10.3212C18.1154 9.47195 17.5998 8.70027 16.9497 8.05026C16.2997 7.40025 15.5281 6.88464 14.6788 6.53285C13.8295 6.18107 12.9192 6.00001 12 6.00001C10.1435 6.00001 8.363 6.73751 7.05025 8.05026C5.73749 9.36302 4.99999 11.1435 4.99999 13C4.99999 14.8565 5.73749 16.637 7.05025 17.9498C8.363 19.2625 10.1435 20 12 20ZM13 13H16V15H11V8.00001H13V13ZM1.74699 6.28201L5.28199 2.74701L6.69699 4.16101L3.15999 7.69701L1.74699 6.28201ZM18.717 2.74701L22.253 6.28201L20.839 7.69701L17.303 4.16101L18.718 2.74701H18.717Z" fill="#09121F"/>
</g>
<defs>
<clipPath id="clip0_1_37">
<rect width="24" height="24" fill="white"/>
</clipPath>
</defs>
</svg>
