<svg width="24" height="24" viewBox="0 0 24 24" fill="none" xmlns="http://www.w3.org/2000/svg">
<g clip-path="url(#clip0_1_537)">
<path d="M9.342 18.782L7.41099 18.264L8.19799 15.325C7.01996 14.8905 5.92511 14.2573 4.96099 13.453L2.80799 15.607L1.39299 14.192L3.54699 12.039C2.33107 10.5827 1.51408 8.83575 1.17599 6.96899L3.14399 6.60999C3.90299 10.812 7.579 14 12 14C16.42 14 20.097 10.812 20.856 6.60999L22.824 6.96799C22.4864 8.835 21.6697 10.5824 20.454 12.039L22.607 14.192L21.192 15.607L19.039 13.453C18.0749 14.2573 16.98 14.8905 15.802 15.325L16.589 18.265L14.658 18.782L13.87 15.842C12.6323 16.0541 11.3676 16.0541 10.13 15.842L9.342 18.782Z" fill="#09121F"/>
</g>
<defs>
<clipPath id="clip0_1_537">
<rect width="24" height="24" fill="white"/>
</clipPath>
</defs>
</svg>
