<svg width="24" height="24" viewBox="0 0 24 24" fill="none" xmlns="http://www.w3.org/2000/svg">
<g clip-path="url(#clip0_1_1042)">
<path d="M5.33399 4.54501C6.36072 3.62529 7.56667 2.928 8.87599 2.49701C9.25037 2.96603 9.72565 3.34464 10.2665 3.60468C10.8074 3.86472 11.3999 3.9995 12 3.99901C12.6001 3.9995 13.1926 3.86472 13.7335 3.60468C14.2743 3.34464 14.7496 2.96603 15.124 2.49701C16.4333 2.928 17.6393 3.62529 18.666 4.54501C18.4475 5.10346 18.3576 5.70395 18.4029 6.3019C18.4483 6.89985 18.6278 7.47991 18.928 7.99901C19.2276 8.5191 19.6406 8.96496 20.1363 9.30343C20.6319 9.6419 21.1975 9.86427 21.791 9.95401C22.0715 11.3029 22.0715 12.6951 21.791 14.044C20.631 14.222 19.561 14.904 18.928 15.999C18.6276 16.5182 18.4481 17.0985 18.4027 17.6966C18.3573 18.2947 18.4473 18.8954 18.666 19.454C17.6392 20.3734 16.4332 21.0703 15.124 21.501C14.7495 21.0322 14.2742 20.6538 13.7333 20.3939C13.1925 20.134 12.6 19.9994 12 20C11.3999 19.9995 10.8074 20.1343 10.2665 20.3943C9.72565 20.6544 9.25037 21.033 8.87599 21.502C7.56676 21.0713 6.36081 20.3744 5.33399 19.455C5.55264 18.8964 5.64263 18.2957 5.59727 17.6976C5.55191 17.0995 5.37237 16.5192 5.07199 16C4.77228 15.4801 4.35924 15.0344 3.86357 14.6961C3.36791 14.3579 2.80236 14.1356 2.20899 14.046C1.9283 12.6968 1.9283 11.3042 2.20899 9.95501C2.80245 9.86527 3.36805 9.6429 3.86373 9.30443C4.3594 8.96596 4.77239 8.5201 5.07199 8.00001C5.37222 7.48091 5.55167 6.90085 5.59703 6.3029C5.64239 5.70495 5.55248 5.10446 5.33399 4.54601V4.54501ZM13.5 14.597C13.8439 14.4015 14.1458 14.1398 14.3882 13.8271C14.6306 13.5144 14.8088 13.1569 14.9124 12.7751C15.0161 12.3933 15.0432 11.9947 14.9922 11.6024C14.9412 11.21 14.8131 10.8317 14.6153 10.489C14.4175 10.1464 14.1538 9.84628 13.8395 9.60595C13.5252 9.36563 13.1665 9.18984 12.784 9.08871C12.4015 8.98759 12.0028 8.96312 11.6108 9.01672C11.2188 9.07031 10.8413 9.20092 10.5 9.40101C9.81657 9.80166 9.31936 10.4564 9.11688 11.2223C8.91439 11.9881 9.02305 12.803 9.41916 13.4891C9.81527 14.1752 10.4667 14.6767 11.2312 14.8843C11.9957 15.0918 12.8113 14.9886 13.5 14.597Z" fill="#09121F"/>
</g>
<defs>
<clipPath id="clip0_1_1042">
<rect width="24" height="24" fill="white"/>
</clipPath>
</defs>
</svg>
