<svg width="24" height="24" viewBox="0 0 24 24" fill="none" xmlns="http://www.w3.org/2000/svg">
<g clip-path="url(#clip0_1_145)">
<path d="M3.34 17C2.91727 16.269 2.58866 15.4875 2.362 14.674C2.85531 14.4231 3.26959 14.0406 3.55903 13.5689C3.84846 13.0972 4.00176 12.5546 4.00197 12.0011C4.00218 11.4477 3.84928 10.905 3.5602 10.433C3.27112 9.96106 2.85712 9.57828 2.364 9.32701C2.81604 7.69249 3.67673 6.19996 4.865 4.99001C5.32909 5.29173 5.86762 5.45917 6.42098 5.47379C6.97434 5.48841 7.52095 5.34964 8.00033 5.07284C8.47971 4.79604 8.87315 4.392 9.13713 3.90545C9.4011 3.41889 9.52531 2.86878 9.496 2.31601C11.1381 1.89163 12.8612 1.89232 14.503 2.31801C14.474 2.87077 14.5984 3.4208 14.8626 3.90721C15.1268 4.39363 15.5204 4.79748 15.9998 5.07407C16.4793 5.35065 17.0259 5.48919 17.5793 5.47436C18.1326 5.45952 18.671 5.29189 19.135 4.99001C19.714 5.58001 20.228 6.25101 20.66 7.00001C21.093 7.74901 21.417 8.53001 21.638 9.32601C21.1447 9.57691 20.7304 9.95938 20.441 10.4311C20.1515 10.9028 19.9982 11.4454 19.998 11.9989C19.9978 12.5523 20.1507 13.0951 20.4398 13.567C20.7289 14.039 21.1429 14.4217 21.636 14.673C21.184 16.3075 20.3233 17.8001 19.135 19.01C18.6709 18.7083 18.1324 18.5408 17.579 18.5262C17.0257 18.5116 16.479 18.6504 15.9997 18.9272C15.5203 19.204 15.1268 19.608 14.8629 20.0946C14.5989 20.5811 14.4747 21.1312 14.504 21.684C12.8619 22.1084 11.1388 22.1077 9.497 21.682C9.52605 21.1292 9.4016 20.5792 9.13742 20.0928C8.87324 19.6064 8.47964 19.2025 8.00017 18.9259C7.5207 18.6494 6.97405 18.5108 6.42073 18.5257C5.8674 18.5405 5.32896 18.7081 4.865 19.01C4.27399 18.407 3.76159 17.7316 3.34 17ZM9 17.196C10.0656 17.8106 10.8668 18.797 11.25 19.966C11.749 20.013 12.25 20.014 12.749 19.967C13.1324 18.7979 13.934 17.8114 15 17.197C16.0652 16.5807 17.3205 16.3795 18.525 16.632C18.815 16.224 19.065 15.789 19.273 15.334C18.4524 14.4174 17.9991 13.2302 18 12C18 10.74 18.47 9.56301 19.273 8.66601C19.0635 8.21115 18.8125 7.77664 18.523 7.36801C17.3193 7.62032 16.0648 7.41948 15 6.80401C13.9344 6.18938 13.1332 5.20299 12.75 4.03401C12.251 3.98701 11.75 3.98601 11.251 4.03301C10.8676 5.20215 10.066 6.18857 9 6.80301C7.93478 7.41932 6.67948 7.62053 5.475 7.36801C5.18556 7.77629 4.93513 8.21087 4.727 8.66601C5.54757 9.58257 6.00088 10.7698 6 12C6 13.26 5.53 14.437 4.727 15.334C4.93647 15.7889 5.18754 16.2234 5.477 16.632C6.68072 16.3797 7.93521 16.5805 9 17.196ZM12 15C11.2044 15 10.4413 14.6839 9.87868 14.1213C9.31607 13.5587 9 12.7957 9 12C9 11.2044 9.31607 10.4413 9.87868 9.87869C10.4413 9.31608 11.2044 9.00001 12 9.00001C12.7956 9.00001 13.5587 9.31608 14.1213 9.87869C14.6839 10.4413 15 11.2044 15 12C15 12.7957 14.6839 13.5587 14.1213 14.1213C13.5587 14.6839 12.7956 15 12 15ZM12 13C12.2652 13 12.5196 12.8946 12.7071 12.7071C12.8946 12.5196 13 12.2652 13 12C13 11.7348 12.8946 11.4804 12.7071 11.2929C12.5196 11.1054 12.2652 11 12 11C11.7348 11 11.4804 11.1054 11.2929 11.2929C11.1054 11.4804 11 11.7348 11 12C11 12.2652 11.1054 12.5196 11.2929 12.7071C11.4804 12.8946 11.7348 13 12 13Z" fill="#09121F"/>
</g>
<defs>
<clipPath id="clip0_1_145">
<rect width="24" height="24" fill="white"/>
</clipPath>
</defs>
</svg>
