<svg width="24" height="24" viewBox="0 0 24 24" fill="none" xmlns="http://www.w3.org/2000/svg">
<g clip-path="url(#clip0_1_910)">
<path d="M3.05502 13H5.07002C5.31231 14.6648 6.14589 16.1867 7.41825 17.2873C8.69061 18.3879 10.3167 18.9936 11.999 18.9936C13.6813 18.9936 15.3074 18.3879 16.5798 17.2873C17.8521 16.1867 18.6857 14.6648 18.928 13H20.944C20.6975 15.1999 19.6489 17.2317 17.9988 18.7073C16.3487 20.1828 14.2126 20.9985 11.999 20.9985C9.78538 20.9985 7.64938 20.1828 5.99924 18.7073C4.3491 17.2317 3.30056 15.1999 3.05402 13H3.05502ZM3.05502 11C3.30156 8.80015 4.3501 6.76829 6.00024 5.29275C7.65038 3.81721 9.78638 3.0015 12 3.0015C14.2136 3.0015 16.3497 3.81721 17.9998 5.29275C19.6499 6.76829 20.6985 8.80015 20.945 11H18.93C18.6877 9.33523 17.8541 7.81333 16.5818 6.71274C15.3094 5.61216 13.6833 5.00646 12.001 5.00646C10.3187 5.00646 8.69261 5.61216 7.42025 6.71274C6.14789 7.81333 5.31431 9.33523 5.07202 11H3.05502Z" fill="#09121F"/>
</g>
<defs>
<clipPath id="clip0_1_910">
<rect width="24" height="24" fill="white"/>
</clipPath>
</defs>
</svg>
