<svg width="16" height="16" viewBox="0 0 16 16" fill="none" xmlns="http://www.w3.org/2000/svg">
<path d="M15.834 7.9787C15.8522 3.83874 12.5071 0.463947 8.36711 0.445684C4.22715 0.42742 0.852365 3.77256 0.834102 7.91252C0.818088 11.5425 3.38473 14.5763 6.80162 15.2889L6.82412 10.189L5.32413 10.1824L5.33406 7.93238L6.83404 7.93899L6.84231 6.06401C6.8487 4.61653 8.03138 3.44423 9.47887 3.45062L11.3539 3.45889L11.3439 5.70887L9.84394 5.70225C9.43144 5.70043 9.09246 6.03644 9.09064 6.44893L9.08402 7.94892L11.334 7.95884L11.3241 10.2088L9.0741 10.1989L9.0511 15.4113C12.8402 15.0531 15.8168 11.8712 15.834 7.9787Z" fill="white"/>
</svg>
